<svg viewBox="0 0 232 232" xml:space="preserve" xmlns="http://www.w3.org/2000/svg"><path fill="#fff" d="M0 0H232V232H0z"/><path transform="translate(16 16) translate(64) scale(.08)" d="M0 0H100V100H0z"/><path transform="translate(16 16) translate(72) scale(.08)" d="M0 0H100V100H0z"/><path transform="translate(16 16) translate(80) scale(.08)" d="M0 0H100V100H0z"/><path transform="translate(16 16) translate(88) scale(.08)" d="M0 0H100V100H0z"/><path transform="translate(16 16) translate(96) scale(.08)" d="M0 0H100V100H0z"/><path transform="translate(16 16) translate(112) scale(.08)" d="M0 0H100V100H0z"/><path transform="translate(16 16) matrix(.08 0 0 .08 64 8)" d="M0 0H100V100H0z"/><path transform="translate(16 16) matrix(.08 0 0 .08 72 8)" d="M0 0H100V100H0z"/><path transform="translate(16 16) matrix(.08 0 0 .08 80 8)" d="M0 0H100V100H0z"/><path transform="translate(16 16) matrix(.08 0 0 .08 96 8)" d="M0 0H100V100H0z"/><path transform="translate(16 16) matrix(.08 0 0 .08 64 16)" d="M0 0H100V100H0z"/><path transform="translate(16 16) matrix(.08 0 0 .08 96 16)" d="M0 0H100V100H0z"/><path transform="translate(16 16) matrix(.08 0 0 .08 104 16)" d="M0 0H100V100H0z"/><path transform="translate(16 16) matrix(.08 0 0 .08 112 16)" d="M0 0H100V100H0z"/><path transform="translate(16 16) matrix(.08 0 0 .08 104 24)" d="M0 0H100V100H0z"/><path transform="translate(16 16) matrix(.08 0 0 .08 120 24)" d="M0 0H100V100H0z"/><path transform="translate(16 16) matrix(.08 0 0 .08 128 24)" d="M0 0H100V100H0z"/><path transform="translate(16 16) matrix(.08 0 0 .08 64 32)" d="M0 0H100V100H0z"/><path transform="translate(16 16) matrix(.08 0 0 .08 72 32)" d="M0 0H100V100H0z"/><path transform="translate(16 16) matrix(.08 0 0 .08 80 32)" d="M0 0H100V100H0z"/><path transform="translate(16 16) matrix(.08 0 0 .08 88 32)" d="M0 0H100V100H0z"/><path transform="translate(16 16) matrix(.08 0 0 .08 112 32)" d="M0 0H100V100H0z"/><path transform="translate(16 16) matrix(.08 0 0 .08 128 32)" d="M0 0H100V100H0z"/><path transform="translate(16 16) matrix(.08 0 0 .08 80 40)" d="M0 0H100V100H0z"/><path transform="translate(16 16) matrix(.08 0 0 .08 96 40)" d="M0 0H100V100H0z"/><path transform="translate(16 16) matrix(.08 0 0 .08 112 40)" d="M0 0H100V100H0z"/><path transform="translate(16 16) matrix(.08 0 0 .08 128 40)" d="M0 0H100V100H0z"/><path transform="translate(16 16) matrix(.08 0 0 .08 64 48)" d="M0 0H100V100H0z"/><path transform="translate(16 16) matrix(.08 0 0 .08 80 48)" d="M0 0H100V100H0z"/><path transform="translate(16 16) matrix(.08 0 0 .08 96 48)" d="M0 0H100V100H0z"/><path transform="translate(16 16) matrix(.08 0 0 .08 112 48)" d="M0 0H100V100H0z"/><path transform="translate(16 16) matrix(.08 0 0 .08 128 48)" d="M0 0H100V100H0z"/><path transform="translate(16 16) matrix(.08 0 0 .08 88 56)" d="M0 0H100V100H0z"/><path transform="translate(16 16) matrix(.08 0 0 .08 104 56)" d="M0 0H100V100H0z"/><path transform="translate(16 16) matrix(.08 0 0 .08 112 56)" d="M0 0H100V100H0z"/><path transform="translate(16 16) matrix(.08 0 0 .08 128 56)" d="M0 0H100V100H0z"/><path transform="translate(16 16) matrix(.08 0 0 .08 0 64)" d="M0 0H100V100H0z"/><path transform="translate(16 16) matrix(.08 0 0 .08 24 64)" d="M0 0H100V100H0z"/><path transform="translate(16 16) matrix(.08 0 0 .08 32 64)" d="M0 0H100V100H0z"/><path transform="translate(16 16) matrix(.08 0 0 .08 40 64)" d="M0 0H100V100H0z"/><path transform="translate(16 16) matrix(.08 0 0 .08 48 64)" d="M0 0H100V100H0z"/><path transform="translate(16 16) matrix(.08 0 0 .08 56 64)" d="M0 0H100V100H0z"/><path transform="translate(16 16) matrix(.08 0 0 .08 64 64)" d="M0 0H100V100H0z"/><path transform="translate(16 16) matrix(.08 0 0 .08 72 64)" d="M0 0H100V100H0z"/><path transform="translate(16 16) matrix(.08 0 0 .08 112 64)" d="M0 0H100V100H0z"/><path transform="translate(16 16) matrix(.08 0 0 .08 120 64)" d="M0 0H100V100H0z"/><path transform="translate(16 16) matrix(.08 0 0 .08 128 64)" d="M0 0H100V100H0z"/><path transform="translate(16 16) matrix(.08 0 0 .08 136 64)" d="M0 0H100V100H0z"/><path transform="translate(16 16) matrix(.08 0 0 .08 160 64)" d="M0 0H100V100H0z"/><path transform="translate(16 16) matrix(.08 0 0 .08 176 64)" d="M0 0H100V100H0z"/><path transform="translate(16 16) matrix(.08 0 0 .08 184 64)" d="M0 0H100V100H0z"/><path transform="translate(16 16) matrix(.08 0 0 .08 192 64)" d="M0 0H100V100H0z"/><path transform="translate(16 16) matrix(.08 0 0 .08 8 72)" d="M0 0H100V100H0z"/><path transform="translate(16 16) matrix(.08 0 0 .08 24 72)" d="M0 0H100V100H0z"/><path transform="translate(16 16) matrix(.08 0 0 .08 32 72)" d="M0 0H100V100H0z"/><path transform="translate(16 16) matrix(.08 0 0 .08 56 72)" d="M0 0H100V100H0z"/><path transform="translate(16 16) matrix(.08 0 0 .08 64 72)" d="M0 0H100V100H0z"/><path transform="translate(16 16) matrix(.08 0 0 .08 80 72)" d="M0 0H100V100H0z"/><path transform="translate(16 16) matrix(.08 0 0 .08 88 72)" d="M0 0H100V100H0z"/><path transform="translate(16 16) matrix(.08 0 0 .08 112 72)" d="M0 0H100V100H0z"/><path transform="translate(16 16) matrix(.08 0 0 .08 120 72)" d="M0 0H100V100H0z"/><path transform="translate(16 16) matrix(.08 0 0 .08 136 72)" d="M0 0H100V100H0z"/><path transform="translate(16 16) matrix(.08 0 0 .08 152 72)" d="M0 0H100V100H0z"/><path transform="translate(16 16) matrix(.08 0 0 .08 160 72)" d="M0 0H100V100H0z"/><path transform="translate(16 16) matrix(.08 0 0 .08 168 72)" d="M0 0H100V100H0z"/><path transform="translate(16 16) matrix(.08 0 0 .08 176 72)" d="M0 0H100V100H0z"/><path transform="translate(16 16) matrix(.08 0 0 .08 184 72)" d="M0 0H100V100H0z"/><path transform="translate(16 16) matrix(.08 0 0 .08 0 80)" d="M0 0H100V100H0z"/><path transform="translate(16 16) matrix(.08 0 0 .08 8 80)" d="M0 0H100V100H0z"/><path transform="translate(16 16) matrix(.08 0 0 .08 16 80)" d="M0 0H100V100H0z"/><path transform="translate(16 16) matrix(.08 0 0 .08 24 80)" d="M0 0H100V100H0z"/><path transform="translate(16 16) matrix(.08 0 0 .08 32 80)" d="M0 0H100V100H0z"/><path transform="translate(16 16) matrix(.08 0 0 .08 40 80)" d="M0 0H100V100H0z"/><path transform="translate(16 16) matrix(.08 0 0 .08 48 80)" d="M0 0H100V100H0z"/><path transform="translate(16 16) matrix(.08 0 0 .08 88 80)" d="M0 0H100V100H0z"/><path transform="translate(16 16) matrix(.08 0 0 .08 120 80)" d="M0 0H100V100H0z"/><path transform="translate(16 16) matrix(.08 0 0 .08 136 80)" d="M0 0H100V100H0z"/><path transform="translate(16 16) matrix(.08 0 0 .08 144 80)" d="M0 0H100V100H0z"/><path transform="translate(16 16) matrix(.08 0 0 .08 168 80)" d="M0 0H100V100H0z"/><path transform="translate(16 16) matrix(.08 0 0 .08 192 80)" d="M0 0H100V100H0z"/><path transform="translate(16 16) matrix(.08 0 0 .08 0 88)" d="M0 0H100V100H0z"/><path transform="translate(16 16) matrix(.08 0 0 .08 8 88)" d="M0 0H100V100H0z"/><path transform="translate(16 16) matrix(.08 0 0 .08 16 88)" d="M0 0H100V100H0z"/><path transform="translate(16 16) matrix(.08 0 0 .08 32 88)" d="M0 0H100V100H0z"/><path transform="translate(16 16) matrix(.08 0 0 .08 40 88)" d="M0 0H100V100H0z"/><path transform="translate(16 16) matrix(.08 0 0 .08 80 88)" d="M0 0H100V100H0z"/><path transform="translate(16 16) matrix(.08 0 0 .08 112 88)" d="M0 0H100V100H0z"/><path transform="translate(16 16) matrix(.08 0 0 .08 120 88)" d="M0 0H100V100H0z"/><path transform="translate(16 16) matrix(.08 0 0 .08 136 88)" d="M0 0H100V100H0z"/><path transform="translate(16 16) matrix(.08 0 0 .08 152 88)" d="M0 0H100V100H0z"/><path transform="translate(16 16) matrix(.08 0 0 .08 168 88)" d="M0 0H100V100H0z"/><path transform="translate(16 16) matrix(.08 0 0 .08 176 88)" d="M0 0H100V100H0z"/><path transform="translate(16 16) matrix(.08 0 0 .08 184 88)" d="M0 0H100V100H0z"/><path transform="translate(16 16) matrix(.08 0 0 .08 192 88)" d="M0 0H100V100H0z"/><path transform="translate(16 16) matrix(.08 0 0 .08 0 96)" d="M0 0H100V100H0z"/><path transform="translate(16 16) matrix(.08 0 0 .08 8 96)" d="M0 0H100V100H0z"/><path transform="translate(16 16) matrix(.08 0 0 .08 48 96)" d="M0 0H100V100H0z"/><path transform="translate(16 16) matrix(.08 0 0 .08 80 96)" d="M0 0H100V100H0z"/><path transform="translate(16 16) matrix(.08 0 0 .08 88 96)" d="M0 0H100V100H0z"/><path transform="translate(16 16) matrix(.08 0 0 .08 96 96)" d="M0 0H100V100H0z"/><path transform="translate(16 16) matrix(.08 0 0 .08 112 96)" d="M0 0H100V100H0z"/><path transform="translate(16 16) matrix(.08 0 0 .08 128 96)" d="M0 0H100V100H0z"/><path transform="translate(16 16) matrix(.08 0 0 .08 144 96)" d="M0 0H100V100H0z"/><path transform="translate(16 16) matrix(.08 0 0 .08 152 96)" d="M0 0H100V100H0z"/><path transform="translate(16 16) matrix(.08 0 0 .08 192 96)" d="M0 0H100V100H0z"/><path transform="translate(16 16) matrix(.08 0 0 .08 0 104)" d="M0 0H100V100H0z"/><path transform="translate(16 16) matrix(.08 0 0 .08 8 104)" d="M0 0H100V100H0z"/><path transform="translate(16 16) matrix(.08 0 0 .08 56 104)" d="M0 0H100V100H0z"/><path transform="translate(16 16) matrix(.08 0 0 .08 112 104)" d="M0 0H100V100H0z"/><path transform="translate(16 16) matrix(.08 0 0 .08 120 104)" d="M0 0H100V100H0z"/><path transform="translate(16 16) matrix(.08 0 0 .08 128 104)" d="M0 0H100V100H0z"/><path transform="translate(16 16) matrix(.08 0 0 .08 160 104)" d="M0 0H100V100H0z"/><path transform="translate(16 16) matrix(.08 0 0 .08 184 104)" d="M0 0H100V100H0z"/><path transform="translate(16 16) matrix(.08 0 0 .08 0 112)" d="M0 0H100V100H0z"/><path transform="translate(16 16) matrix(.08 0 0 .08 8 112)" d="M0 0H100V100H0z"/><path transform="translate(16 16) matrix(.08 0 0 .08 16 112)" d="M0 0H100V100H0z"/><path transform="translate(16 16) matrix(.08 0 0 .08 40 112)" d="M0 0H100V100H0z"/><path transform="translate(16 16) matrix(.08 0 0 .08 48 112)" d="M0 0H100V100H0z"/><path transform="translate(16 16) matrix(.08 0 0 .08 64 112)" d="M0 0H100V100H0z"/><path transform="translate(16 16) matrix(.08 0 0 .08 88 112)" d="M0 0H100V100H0z"/><path transform="translate(16 16) matrix(.08 0 0 .08 96 112)" d="M0 0H100V100H0z"/><path transform="translate(16 16) matrix(.08 0 0 .08 112 112)" d="M0 0H100V100H0z"/><path transform="translate(16 16) matrix(.08 0 0 .08 120 112)" d="M0 0H100V100H0z"/><path transform="translate(16 16) matrix(.08 0 0 .08 136 112)" d="M0 0H100V100H0z"/><path transform="translate(16 16) matrix(.08 0 0 .08 160 112)" d="M0 0H100V100H0z"/><path transform="translate(16 16) matrix(.08 0 0 .08 168 112)" d="M0 0H100V100H0z"/><path transform="translate(16 16) matrix(.08 0 0 .08 176 112)" d="M0 0H100V100H0z"/><path transform="translate(16 16) matrix(.08 0 0 .08 184 112)" d="M0 0H100V100H0z"/><path transform="translate(16 16) matrix(.08 0 0 .08 192 112)" d="M0 0H100V100H0z"/><path transform="translate(16 16) matrix(.08 0 0 .08 0 120)" d="M0 0H100V100H0z"/><path transform="translate(16 16) matrix(.08 0 0 .08 56 120)" d="M0 0H100V100H0z"/><path transform="translate(16 16) matrix(.08 0 0 .08 64 120)" d="M0 0H100V100H0z"/><path transform="translate(16 16) matrix(.08 0 0 .08 88 120)" d="M0 0H100V100H0z"/><path transform="translate(16 16) matrix(.08 0 0 .08 112 120)" d="M0 0H100V100H0z"/><path transform="translate(16 16) matrix(.08 0 0 .08 136 120)" d="M0 0H100V100H0z"/><path transform="translate(16 16) matrix(.08 0 0 .08 152 120)" d="M0 0H100V100H0z"/><path transform="translate(16 16) matrix(.08 0 0 .08 168 120)" d="M0 0H100V100H0z"/><path transform="translate(16 16) matrix(.08 0 0 .08 176 120)" d="M0 0H100V100H0z"/><path transform="translate(16 16) matrix(.08 0 0 .08 192 120)" d="M0 0H100V100H0z"/><path transform="translate(16 16) matrix(.08 0 0 .08 0 128)" d="M0 0H100V100H0z"/><path transform="translate(16 16) matrix(.08 0 0 .08 24 128)" d="M0 0H100V100H0z"/><path transform="translate(16 16) matrix(.08 0 0 .08 48 128)" d="M0 0H100V100H0z"/><path transform="translate(16 16) matrix(.08 0 0 .08 56 128)" d="M0 0H100V100H0z"/><path transform="translate(16 16) matrix(.08 0 0 .08 72 128)" d="M0 0H100V100H0z"/><path transform="translate(16 16) matrix(.08 0 0 .08 96 128)" d="M0 0H100V100H0z"/><path transform="translate(16 16) matrix(.08 0 0 .08 104 128)" d="M0 0H100V100H0z"/><path transform="translate(16 16) matrix(.08 0 0 .08 120 128)" d="M0 0H100V100H0z"/><path transform="translate(16 16) matrix(.08 0 0 .08 128 128)" d="M0 0H100V100H0z"/><path transform="translate(16 16) matrix(.08 0 0 .08 136 128)" d="M0 0H100V100H0z"/><path transform="translate(16 16) matrix(.08 0 0 .08 144 128)" d="M0 0H100V100H0z"/><path transform="translate(16 16) matrix(.08 0 0 .08 152 128)" d="M0 0H100V100H0z"/><path transform="translate(16 16) matrix(.08 0 0 .08 160 128)" d="M0 0H100V100H0z"/><path transform="translate(16 16) matrix(.08 0 0 .08 176 128)" d="M0 0H100V100H0z"/><path transform="translate(16 16) matrix(.08 0 0 .08 184 128)" d="M0 0H100V100H0z"/><path transform="translate(16 16) matrix(.08 0 0 .08 64 136)" d="M0 0H100V100H0z"/><path transform="translate(16 16) matrix(.08 0 0 .08 80 136)" d="M0 0H100V100H0z"/><path transform="translate(16 16) matrix(.08 0 0 .08 88 136)" d="M0 0H100V100H0z"/><path transform="translate(16 16) matrix(.08 0 0 .08 96 136)" d="M0 0H100V100H0z"/><path transform="translate(16 16) matrix(.08 0 0 .08 128 136)" d="M0 0H100V100H0z"/><path transform="translate(16 16) matrix(.08 0 0 .08 160 136)" d="M0 0H100V100H0z"/><path transform="translate(16 16) matrix(.08 0 0 .08 176 136)" d="M0 0H100V100H0z"/><path transform="translate(16 16) matrix(.08 0 0 .08 184 136)" d="M0 0H100V100H0z"/><path transform="translate(16 16) matrix(.08 0 0 .08 64 144)" d="M0 0H100V100H0z"/><path transform="translate(16 16) matrix(.08 0 0 .08 72 144)" d="M0 0H100V100H0z"/><path transform="translate(16 16) matrix(.08 0 0 .08 88 144)" d="M0 0H100V100H0z"/><path transform="translate(16 16) matrix(.08 0 0 .08 112 144)" d="M0 0H100V100H0z"/><path transform="translate(16 16) matrix(.08 0 0 .08 128 144)" d="M0 0H100V100H0z"/><path transform="translate(16 16) matrix(.08 0 0 .08 144 144)" d="M0 0H100V100H0z"/><path transform="translate(16 16) matrix(.08 0 0 .08 160 144)" d="M0 0H100V100H0z"/><path transform="translate(16 16) matrix(.08 0 0 .08 192 144)" d="M0 0H100V100H0z"/><path transform="translate(16 16) matrix(.08 0 0 .08 64 152)" d="M0 0H100V100H0z"/><path transform="translate(16 16) matrix(.08 0 0 .08 72 152)" d="M0 0H100V100H0z"/><path transform="translate(16 16) matrix(.08 0 0 .08 88 152)" d="M0 0H100V100H0z"/><path transform="translate(16 16) matrix(.08 0 0 .08 104 152)" d="M0 0H100V100H0z"/><path transform="translate(16 16) matrix(.08 0 0 .08 120 152)" d="M0 0H100V100H0z"/><path transform="translate(16 16) matrix(.08 0 0 .08 128 152)" d="M0 0H100V100H0z"/><path transform="translate(16 16) matrix(.08 0 0 .08 160 152)" d="M0 0H100V100H0z"/><path transform="translate(16 16) matrix(.08 0 0 .08 184 152)" d="M0 0H100V100H0z"/><path transform="translate(16 16) matrix(.08 0 0 .08 192 152)" d="M0 0H100V100H0z"/><path transform="translate(16 16) matrix(.08 0 0 .08 64 160)" d="M0 0H100V100H0z"/><path transform="translate(16 16) matrix(.08 0 0 .08 72 160)" d="M0 0H100V100H0z"/><path transform="translate(16 16) matrix(.08 0 0 .08 80 160)" d="M0 0H100V100H0z"/><path transform="translate(16 16) matrix(.08 0 0 .08 88 160)" d="M0 0H100V100H0z"/><path transform="translate(16 16) matrix(.08 0 0 .08 96 160)" d="M0 0H100V100H0z"/><path transform="translate(16 16) matrix(.08 0 0 .08 112 160)" d="M0 0H100V100H0z"/><path transform="translate(16 16) matrix(.08 0 0 .08 120 160)" d="M0 0H100V100H0z"/><path transform="translate(16 16) matrix(.08 0 0 .08 128 160)" d="M0 0H100V100H0z"/><path transform="translate(16 16) matrix(.08 0 0 .08 136 160)" d="M0 0H100V100H0z"/><path transform="translate(16 16) matrix(.08 0 0 .08 144 160)" d="M0 0H100V100H0z"/><path transform="translate(16 16) matrix(.08 0 0 .08 152 160)" d="M0 0H100V100H0z"/><path transform="translate(16 16) matrix(.08 0 0 .08 160 160)" d="M0 0H100V100H0z"/><path transform="translate(16 16) matrix(.08 0 0 .08 64 168)" d="M0 0H100V100H0z"/><path transform="translate(16 16) matrix(.08 0 0 .08 88 168)" d="M0 0H100V100H0z"/><path transform="translate(16 16) matrix(.08 0 0 .08 96 168)" d="M0 0H100V100H0z"/><path transform="translate(16 16) matrix(.08 0 0 .08 104 168)" d="M0 0H100V100H0z"/><path transform="translate(16 16) matrix(.08 0 0 .08 112 168)" d="M0 0H100V100H0z"/><path transform="translate(16 16) matrix(.08 0 0 .08 128 168)" d="M0 0H100V100H0z"/><path transform="translate(16 16) matrix(.08 0 0 .08 136 168)" d="M0 0H100V100H0z"/><path transform="translate(16 16) matrix(.08 0 0 .08 144 168)" d="M0 0H100V100H0z"/><path transform="translate(16 16) matrix(.08 0 0 .08 184 168)" d="M0 0H100V100H0z"/><path transform="translate(16 16) matrix(.08 0 0 .08 192 168)" d="M0 0H100V100H0z"/><path transform="translate(16 16) matrix(.08 0 0 .08 72 176)" d="M0 0H100V100H0z"/><path transform="translate(16 16) matrix(.08 0 0 .08 88 176)" d="M0 0H100V100H0z"/><path transform="translate(16 16) matrix(.08 0 0 .08 104 176)" d="M0 0H100V100H0z"/><path transform="translate(16 16) matrix(.08 0 0 .08 136 176)" d="M0 0H100V100H0z"/><path transform="translate(16 16) matrix(.08 0 0 .08 160 176)" d="M0 0H100V100H0z"/><path transform="translate(16 16) matrix(.08 0 0 .08 168 176)" d="M0 0H100V100H0z"/><path transform="translate(16 16) matrix(.08 0 0 .08 176 176)" d="M0 0H100V100H0z"/><path transform="translate(16 16) matrix(.08 0 0 .08 184 176)" d="M0 0H100V100H0z"/><path transform="translate(16 16) matrix(.08 0 0 .08 192 176)" d="M0 0H100V100H0z"/><path transform="translate(16 16) matrix(.08 0 0 .08 72 184)" d="M0 0H100V100H0z"/><path transform="translate(16 16) matrix(.08 0 0 .08 88 184)" d="M0 0H100V100H0z"/><path transform="translate(16 16) matrix(.08 0 0 .08 112 184)" d="M0 0H100V100H0z"/><path transform="translate(16 16) matrix(.08 0 0 .08 120 184)" d="M0 0H100V100H0z"/><path transform="translate(16 16) matrix(.08 0 0 .08 152 184)" d="M0 0H100V100H0z"/><path transform="translate(16 16) matrix(.08 0 0 .08 160 184)" d="M0 0H100V100H0z"/><path transform="translate(16 16) matrix(.08 0 0 .08 176 184)" d="M0 0H100V100H0z"/><path transform="translate(16 16) matrix(.08 0 0 .08 184 184)" d="M0 0H100V100H0z"/><path transform="translate(16 16) matrix(.08 0 0 .08 192 184)" d="M0 0H100V100H0z"/><path transform="translate(16 16) matrix(.08 0 0 .08 64 192)" d="M0 0H100V100H0z"/><path transform="translate(16 16) matrix(.08 0 0 .08 96 192)" d="M0 0H100V100H0z"/><path transform="translate(16 16) matrix(.08 0 0 .08 128 192)" d="M0 0H100V100H0z"/><path transform="translate(16 16) matrix(.08 0 0 .08 136 192)" d="M0 0H100V100H0z"/><path transform="translate(16 16) matrix(.08 0 0 .08 168 192)" d="M0 0H100V100H0z"/><path transform="translate(16 16) matrix(.08 0 0 .08 192 192)" d="M0 0H100V100H0z"/><g transform="translate(16 16) scale(.56)"><path fill="none" d="M15 15H85V85H15z"/><path d="M85 0H0v100h100V0H85zm0 85H15V15h70v70z"/></g><g transform="translate(16 16) translate(144) scale(.56)"><path fill="none" d="M15 15H85V85H15z"/><path d="M85 0H0v100h100V0H85zm0 85H15V15h70v70z"/></g><g transform="translate(16 16) matrix(.56 0 0 .56 0 144)"><path fill="none" d="M15 15H85V85H15z"/><path d="M85 0H0v100h100V0H85zm0 85H15V15h70v70z"/></g><path transform="translate(16 16) matrix(.24 0 0 .24 16 16)" d="M0 0H100V100H0z"/><path transform="translate(16 16) matrix(.24 0 0 .24 160 16)" d="M0 0H100V100H0z"/><path transform="translate(16 16) matrix(.24 0 0 .24 16 160)" d="M0 0H100V100H0z"/></svg>